<svg xmlns="http://www.w3.org/2000/svg" width="68" height="68" viewBox="0 0 68 68" fill="none">
<defs>
<filter id="archive-shadow" x="-30%" y="-30%" width="160%" height="170%" color-interpolation-filters="sRGB"><feDropShadow dx="1.1" dy="2.1" stdDeviation="1.5" flood-color="#584B32" flood-opacity="0.1"/></filter>
<pattern id="archive-grain" width="31" height="29" patternUnits="userSpaceOnUse"><g fill="#705734" opacity=".2"><circle cx="3.2" cy="5.6" r=".25"/><circle cx="15.7" cy="11.2" r=".32"/><circle cx="28.1" cy="3.7" r=".23"/><circle cx="7.8" cy="23.6" r=".28"/><circle cx="24.5" cy="26.3" r=".3"/></g><g stroke="#735D3D" stroke-width=".23" stroke-opacity=".15" stroke-linecap="round"><path d="M8.4 3.1l1.6 .5M20 18.2l2.1 -.3M1.2 17.5l1.5 .1M15.4 27.5l1.1 -.8"/></g></pattern>
<linearGradient id="archive-paper" x1="20" y1="11" x2="51" y2="58" gradientUnits="userSpaceOnUse"><stop stop-color="#FFFDF3"/><stop offset="1" stop-color="#F1E7CE"/></linearGradient>
<linearGradient id="archive-fold" x1="40" y1="12" x2="51" y2="25" gradientUnits="userSpaceOnUse"><stop stop-color="#EEE5CE"/><stop offset="1" stop-color="#DCCBAA"/></linearGradient>
</defs>
<g filter="url(#archive-shadow)">
<path d="M20 11.5L39.5 11.3L52 24L51.8 53C51.8 55.76 49.76 58.2 47 58L20 57.8C17.24 57.8 15.2 55.76 15 53V16.5C15 13.74 17.24 11.5 20 11.5Z" fill="url(#archive-paper)" stroke="#766D59" stroke-opacity=".8" stroke-width=".85"/>
<path d="M39.5 11.5V20C39.5 22.21 41.29 24 43.5 24H52" fill="url(#archive-fold)" stroke="#877A60" stroke-opacity=".64" stroke-width=".75"/>
<path d="M20 11.5L39.5 11.3L52 24L51.8 53C51.8 55.76 49.76 58.2 47 58L20 57.8C17.24 57.8 15.2 55.76 15 53V16.5C15 13.74 17.24 11.5 20 11.5Z" fill="url(#archive-grain)" opacity=".35"/>
<path d="M19.5 13H38" stroke="#FFFFFF" stroke-opacity=".95" stroke-linecap="round"/>
<rect x="29" y="12" width="5.5" height="27" rx="1" fill="#CFB17F"/><path d="M30 15H32.2M31.8 19H34M30 23H32.2M31.8 27H34M30 31H32.2" stroke="#735C41" stroke-width="1.4"/><rect x="27.5" y="38" width="8.5" height="10" rx="2.2" fill="#AE8751" stroke="#725B42" stroke-opacity=".55" stroke-width=".75"/><rect x="30" y="41" width="3.5" height="4" rx="1" fill="#FBF0D7"/>
</g>
</svg>
